<svg xmlns="http://www.w3.org/2000/svg" viewBox="0 0 180 170" role="img" aria-labelledby="title desc">
  <title id="title">红色加速蘑菇</title>
  <desc id="desc">圆润清晰的红白蘑菇角色，带经典黑色椭圆眼睛。</desc>
  <defs>
    <linearGradient id="cap" x1="0" y1="0" x2="0" y2="1">
      <stop offset="0" stop-color="#ff6258"/>
      <stop offset=".58" stop-color="#e5362d"/>
      <stop offset="1" stop-color="#bd211f"/>
    </linearGradient>
    <linearGradient id="stem" x1="0" y1="0" x2="1" y2="1">
      <stop offset="0" stop-color="#fff8e8"/>
      <stop offset="1" stop-color="#e8c69c"/>
    </linearGradient>
    <filter id="shadow" x="-30%" y="-30%" width="170%" height="190%">
      <feDropShadow dx="0" dy="8" stdDeviation="5" flood-color="#64361e" flood-opacity=".26"/>
    </filter>
  </defs>

  <g filter="url(#shadow)">
    <path d="M51 87c-9 15-9 45 3 59 15 13 58 13 73-1 11-16 10-44 1-58z" fill="url(#stem)" stroke="#815037" stroke-width="6"/>
    <path d="M18 88C22 39 54 13 90 13s68 26 72 75c-28 24-115 24-144 0z" fill="url(#cap)" stroke="#84231f" stroke-width="7" stroke-linejoin="round"/>
    <ellipse cx="54" cy="53" rx="22" ry="27" fill="#fff9e9"/>
    <ellipse cx="130" cy="61" rx="19" ry="24" fill="#fff9e9"/>
    <ellipse cx="91" cy="23" rx="16" ry="10" fill="#fff9e9"/>
    <path d="M25 84c33 13 98 13 130 0" fill="none" stroke="#ff9187" stroke-width="5" stroke-linecap="round" opacity=".68"/>
    <ellipse cx="70" cy="119" rx="6" ry="12" fill="#25211e"/>
    <ellipse cx="111" cy="119" rx="6" ry="12" fill="#25211e"/>
    <circle cx="68" cy="116" r="1.8" fill="#fff"/>
    <circle cx="109" cy="116" r="1.8" fill="#fff"/>
  </g>
</svg>
