<svg xmlns="http://www.w3.org/2000/svg" viewBox="0 0 360 250" role="img" aria-labelledby="title desc">
  <title id="title">绿色水管、红蘑菇和龟壳角色</title>
  <desc id="desc">圆润卡通风格的绿色水管、红色蘑菇与黄色龟壳角色。</desc>
  <defs>
    <linearGradient id="pipe" x1="0" y1="0" x2="1" y2="1">
      <stop offset="0" stop-color="#a8f276"/>
      <stop offset="0.35" stop-color="#42c95a"/>
      <stop offset="1" stop-color="#138143"/>
    </linearGradient>
    <linearGradient id="shell" x1="0" y1="0" x2="1" y2="1">
      <stop offset="0" stop-color="#72dc5d"/>
      <stop offset="1" stop-color="#18833e"/>
    </linearGradient>
    <linearGradient id="cap" x1="0" y1="0" x2="0" y2="1">
      <stop offset="0" stop-color="#ff6258"/>
      <stop offset="1" stop-color="#cf2f28"/>
    </linearGradient>
    <filter id="shadow" x="-30%" y="-30%" width="170%" height="180%">
      <feDropShadow dx="0" dy="7" stdDeviation="5" flood-color="#173c25" flood-opacity=".22"/>
    </filter>
  </defs>

  <g filter="url(#shadow)">
    <g transform="translate(18 49)">
      <path d="M28 54h96v135H28z" fill="url(#pipe)" stroke="#17663a" stroke-width="7"/>
      <rect x="4" y="19" width="144" height="58" rx="18" fill="url(#pipe)" stroke="#17663a" stroke-width="7"/>
      <path d="M28 41h95M48 77v106" fill="none" stroke="#d8ffb5" stroke-width="8" stroke-linecap="round" opacity=".58"/>
      <path d="M115 80v103" stroke="#0b6734" stroke-width="9" opacity=".45"/>
    </g>

    <g transform="translate(112 15)">
      <path d="M45 91c-12 13-12 47 1 65 14 12 52 11 65-1 11-18 9-51-2-64z" fill="#fff4dc" stroke="#8b5d3d" stroke-width="6"/>
      <path d="M19 89C22 40 58 16 82 16s61 24 65 73c-28 18-101 18-128 0z" fill="url(#cap)" stroke="#8e2a25" stroke-width="7"/>
      <ellipse cx="55" cy="54" rx="18" ry="22" fill="#fff7e8"/>
      <ellipse cx="116" cy="67" rx="15" ry="19" fill="#fff7e8"/>
      <ellipse cx="78" cy="25" rx="12" ry="8" fill="#fff7e8"/>
      <ellipse cx="64" cy="123" rx="4" ry="7" fill="#3e3025"/>
      <ellipse cx="94" cy="123" rx="4" ry="7" fill="#3e3025"/>
      <path d="M72 140c6 4 13 4 19 0" fill="none" stroke="#cf8b65" stroke-width="3" stroke-linecap="round"/>
    </g>

    <g transform="translate(202 62) scale(.82)">
      <ellipse cx="75" cy="177" rx="32" ry="13" fill="#d9862a" stroke="#784519" stroke-width="6"/>
      <ellipse cx="127" cy="177" rx="31" ry="13" fill="#d9862a" stroke="#784519" stroke-width="6"/>
      <path d="M55 118c5 27 7 39 3 55h30l10-53zM105 119l9 54h30c-4-17-2-32 4-47z" fill="#f4c842" stroke="#8f6615" stroke-width="6" stroke-linejoin="round"/>
      <ellipse cx="82" cy="110" rx="59" ry="56" fill="url(#shell)" stroke="#17663a" stroke-width="7"/>
      <path d="M49 82l33 28 33-29M49 137l33-27 34 28" fill="none" stroke="#d2f5a0" stroke-width="7" stroke-linecap="round" stroke-linejoin="round" opacity=".7"/>
      <path d="M105 95c21 4 33-3 42-19l10-43" fill="none" stroke="#f4cf48" stroke-width="26" stroke-linecap="round"/>
      <circle cx="158" cy="30" r="29" fill="#f4cf48" stroke="#8f6615" stroke-width="6"/>
      <path d="M150 8c10-9 26-5 32 6" fill="none" stroke="#db8a29" stroke-width="8" stroke-linecap="round"/>
      <ellipse cx="171" cy="27" rx="7" ry="10" fill="#fff"/>
      <ellipse cx="173" cy="28" rx="3.5" ry="6" fill="#27211d"/>
      <path d="M178 47c-8 6-15 7-22 2" fill="none" stroke="#8f6615" stroke-width="4" stroke-linecap="round"/>
      <path d="M47 111c-19 3-28 13-31 29" fill="none" stroke="#f4cf48" stroke-width="18" stroke-linecap="round"/>
      <path d="M124 112c21 5 29 16 29 33" fill="none" stroke="#f4cf48" stroke-width="18" stroke-linecap="round"/>
    </g>
  </g>
</svg>
