<svg xmlns="http://www.w3.org/2000/svg" viewBox="0 0 180 180" role="img" aria-labelledby="title desc">
  <title id="title">红帽水管工头像徽章</title>
  <desc id="desc">清晰圆润的红帽水管工角色，带蓝色背带裤、白手套和字母帽徽。</desc>
  <defs>
    <linearGradient id="badge" x1="0" y1="0" x2="1" y2="1">
      <stop offset="0" stop-color="#fff5a8"/>
      <stop offset=".45" stop-color="#ffd33d"/>
      <stop offset="1" stop-color="#e69a18"/>
    </linearGradient>
    <linearGradient id="cap" x1="0" y1="0" x2="0" y2="1">
      <stop offset="0" stop-color="#ff584b"/>
      <stop offset="1" stop-color="#c92320"/>
    </linearGradient>
    <linearGradient id="overalls" x1="0" y1="0" x2="1" y2="1">
      <stop offset="0" stop-color="#4d9dff"/>
      <stop offset="1" stop-color="#1653b9"/>
    </linearGradient>
    <filter id="shadow" x="-35%" y="-35%" width="180%" height="190%">
      <feDropShadow dx="0" dy="8" stdDeviation="5" flood-color="#5c351c" flood-opacity=".28"/>
    </filter>
  </defs>

  <g filter="url(#shadow)">
    <circle cx="90" cy="90" r="76" fill="url(#badge)" stroke="#7e4b16" stroke-width="7"/>
    <circle cx="90" cy="90" r="66" fill="#eaf8ff" stroke="#fff" stroke-width="5"/>

    <path d="M34 157c8-28 27-43 56-43s49 15 57 43" fill="#d52d25" stroke="#7e201d" stroke-width="6" stroke-linejoin="round"/>
    <path d="M58 126c9-8 20-12 32-12 13 0 25 4 34 12l-6 34H62z" fill="url(#overalls)" stroke="#153e82" stroke-width="5"/>
    <path d="M63 120l10 17M117 120l-10 17" fill="none" stroke="#153e82" stroke-width="8" stroke-linecap="round"/>
    <circle cx="75" cy="139" r="5" fill="#ffe05c" stroke="#8a5418" stroke-width="2.5"/>
    <circle cx="105" cy="139" r="5" fill="#ffe05c" stroke="#8a5418" stroke-width="2.5"/>

    <ellipse cx="46" cy="91" rx="14" ry="18" fill="#efab73" stroke="#77452f" stroke-width="5"/>
    <ellipse cx="134" cy="91" rx="14" ry="18" fill="#efab73" stroke="#77452f" stroke-width="5"/>
    <path d="M53 58c6-25 67-35 81 8l-4 36c-6 23-21 35-41 35-22 0-39-16-42-39z" fill="#f4b57d" stroke="#77452f" stroke-width="6"/>
    <path d="M49 72c-1-25 17-43 42-43 24 0 42 17 42 42-9-8-20-12-31-13-14 12-31 16-53 14z" fill="#55301e"/>

    <path d="M43 63c1-34 25-51 50-51 28 0 47 17 51 45l-8 17c-26-9-60-10-93 1z" fill="url(#cap)" stroke="#861f1c" stroke-width="6" stroke-linejoin="round"/>
    <path d="M45 68c26-9 65-8 96 2-8 15-61 19-96 7z" fill="#b8201c" stroke="#861f1c" stroke-width="5"/>
    <circle cx="94" cy="42" r="17" fill="#fff8e8" stroke="#9f2722" stroke-width="4"/>
    <path d="M84 51V33l10 10 10-10v18" fill="none" stroke="#d42924" stroke-width="5" stroke-linecap="round" stroke-linejoin="round"/>

    <ellipse cx="78" cy="86" rx="7" ry="12" fill="#fff"/>
    <ellipse cx="80" cy="88" rx="3.5" ry="7" fill="#27231f"/>
    <ellipse cx="108" cy="85" rx="7" ry="12" fill="#fff"/>
    <ellipse cx="110" cy="87" rx="3.5" ry="7" fill="#27231f"/>
    <ellipse cx="121" cy="99" rx="20" ry="15" fill="#e99c66" stroke="#77452f" stroke-width="4.5"/>
    <path d="M66 107c10-13 22-12 27-4 8-10 20-10 29 3-5 17-17 18-28 8-11 10-23 8-28-7z" fill="#4b291b"/>
    <path d="M82 119c8 5 17 5 25 0" fill="none" stroke="#7e4730" stroke-width="3" stroke-linecap="round"/>

    <path d="M39 133c-12 5-17 15-12 24 6 9 19 7 28-3" fill="#fffaf0" stroke="#8b674e" stroke-width="5" stroke-linecap="round"/>
    <path d="M141 133c12 5 17 15 12 24-6 9-19 7-28-3" fill="#fffaf0" stroke="#8b674e" stroke-width="5" stroke-linecap="round"/>
  </g>
</svg>
