<svg xmlns="http://www.w3.org/2000/svg" viewBox="0 0 320 260" role="img" aria-labelledby="title desc">
  <title id="title">红帽冒险人物与问号方块</title>
  <desc id="desc">圆润卡通风格的红帽人物跳起顶问号方块，周围有金币。</desc>
  <defs>
    <linearGradient id="red" x1="0" y1="0" x2="0" y2="1">
      <stop offset="0" stop-color="#ff5b4d"/>
      <stop offset="1" stop-color="#d72c21"/>
    </linearGradient>
    <linearGradient id="blue" x1="0" y1="0" x2="1" y2="1">
      <stop offset="0" stop-color="#3f8cff"/>
      <stop offset="1" stop-color="#1451b8"/>
    </linearGradient>
    <linearGradient id="gold" x1="0" y1="0" x2="1" y2="1">
      <stop offset="0" stop-color="#fff39a"/>
      <stop offset="0.45" stop-color="#ffd93d"/>
      <stop offset="1" stop-color="#e59b16"/>
    </linearGradient>
    <filter id="shadow" x="-30%" y="-30%" width="170%" height="180%">
      <feDropShadow dx="0" dy="7" stdDeviation="5" flood-color="#5b3215" flood-opacity=".22"/>
    </filter>
  </defs>

  <g filter="url(#shadow)">
    <g transform="translate(218 18)">
      <rect width="76" height="76" rx="18" fill="url(#gold)" stroke="#8f5315" stroke-width="6"/>
      <path d="M17 10h42M10 20v38M66 20v38M17 66h42" fill="none" stroke="#fff4a6" stroke-width="5" stroke-linecap="round" opacity=".75"/>
      <text x="38" y="55" text-anchor="middle" font-family="Arial Rounded MT Bold,Arial,sans-serif" font-size="48" font-weight="900" fill="#fff9d9" stroke="#9a5c1d" stroke-width="3" paint-order="stroke">?</text>
    </g>

    <g fill="url(#gold)" stroke="#a36316" stroke-width="5">
      <ellipse cx="180" cy="39" rx="12" ry="19"/>
      <ellipse cx="145" cy="59" rx="11" ry="18"/>
      <ellipse cx="115" cy="29" rx="10" ry="16"/>
    </g>
    <g fill="none" stroke="#fff5a8" stroke-width="3" stroke-linecap="round">
      <path d="M180 27v24"/><path d="M145 48v22"/><path d="M115 20v19"/>
    </g>

    <g transform="translate(36 42) rotate(-5 110 112)">
      <ellipse cx="82" cy="205" rx="31" ry="16" fill="#6f3e20" stroke="#492817" stroke-width="6" transform="rotate(-10 82 205)"/>
      <ellipse cx="156" cy="205" rx="32" ry="16" fill="#6f3e20" stroke="#492817" stroke-width="6" transform="rotate(12 156 205)"/>

      <path d="M78 158c5 21 2 36-5 47h44l8-48z" fill="url(#blue)" stroke="#173f82" stroke-width="6" stroke-linejoin="round"/>
      <path d="M124 157l7 48h42c-10-12-13-30-9-49z" fill="url(#blue)" stroke="#173f82" stroke-width="6" stroke-linejoin="round"/>

      <path d="M72 108c-13 13-19 38-12 59 13 18 94 19 116-1 7-22-1-45-15-58z" fill="url(#red)" stroke="#8f251d" stroke-width="6"/>
      <path d="M83 119v48c15 13 55 15 73 0v-49l-18 9-19-4-19 4z" fill="url(#blue)" stroke="#173f82" stroke-width="6" stroke-linejoin="round"/>
      <path d="M87 119l14 6M152 119l-14 8" stroke="#173f82" stroke-width="8" stroke-linecap="round"/>
      <circle cx="101" cy="139" r="6" fill="#ffe466" stroke="#8f5315" stroke-width="3"/>
      <circle cx="139" cy="139" r="6" fill="#ffe466" stroke="#8f5315" stroke-width="3"/>

      <path d="M72 116C50 95 39 73 50 55" fill="none" stroke="#d72c21" stroke-width="24" stroke-linecap="round"/>
      <circle cx="51" cy="45" r="19" fill="#fff9eb" stroke="#b78b67" stroke-width="5"/>
      <path d="M41 45c8 5 14 4 21-1M51 31v10" fill="none" stroke="#d8b493" stroke-width="3" stroke-linecap="round"/>

      <path d="M164 117c20 9 31 24 30 44" fill="none" stroke="#d72c21" stroke-width="23" stroke-linecap="round"/>
      <circle cx="193" cy="170" r="18" fill="#fff9eb" stroke="#b78b67" stroke-width="5"/>

      <rect x="100" y="91" width="40" height="27" rx="13" fill="#f1b678" stroke="#8d5736" stroke-width="5"/>
      <circle cx="119" cy="77" r="45" fill="#f4bb7f" stroke="#8d5736" stroke-width="6"/>
      <circle cx="82" cy="84" r="14" fill="#e8a96d" stroke="#8d5736" stroke-width="5"/>
      <path d="M82 53c6-28 68-39 85 3-16 4-31 2-47-3-11 8-22 12-38 12z" fill="#63391f"/>
      <path d="M76 58c3-38 74-52 96-8l-4 18c-25-9-60-10-92 2z" fill="url(#red)" stroke="#8f251d" stroke-width="6" stroke-linejoin="round"/>
      <circle cx="125" cy="38" r="13" fill="#fff9eb" stroke="#a92520" stroke-width="4"/>
      <text x="125" y="45" text-anchor="middle" font-family="Arial Rounded MT Bold,Arial,sans-serif" font-size="19" font-weight="900" fill="#d72c21">M</text>
      <path d="M96 64c22-7 51-5 78 3-7 13-47 14-78 5z" fill="#bd261e" stroke="#8f251d" stroke-width="5"/>
      <ellipse cx="143" cy="80" rx="7" ry="11" fill="#fff"/>
      <ellipse cx="146" cy="82" rx="3.5" ry="6" fill="#2b261f"/>
      <ellipse cx="164" cy="91" rx="18" ry="14" fill="#f0ab6e" stroke="#8d5736" stroke-width="5"/>
      <path d="M119 99c13-12 31-11 43 1-6 13-15 17-23 9-8 8-16 4-20-10z" fill="#4a2b1c"/>
      <path d="M126 107c8 5 17 5 25 0" fill="none" stroke="#2c1b13" stroke-width="3" stroke-linecap="round"/>
    </g>
  </g>
</svg>
